<?xml version="1.0" encoding="utf-8"?>
<!-- Generator: Adobe Illustrator 16.0.0, SVG Export Plug-In . SVG Version: 6.00 Build 0)  -->
<!DOCTYPE svg PUBLIC "-//W3C//DTD SVG 1.1//EN" "http://www.w3.org/Graphics/SVG/1.1/DTD/svg11.dtd">
<svg version="1.1" id="Layer_1" xmlns="http://www.w3.org/2000/svg" xmlns:xlink="http://www.w3.org/1999/xlink" x="0px" y="0px"
	 width="512px" height="512px" viewBox="0 0 512 512" enable-background="new 0 0 512 512" xml:space="preserve">
<g>
	<g>
		<g>
			<rect x="248.505" y="405.996" fill="#2F3491" width="15.002" height="15.002"/>
		</g>
	</g>
	<g>
		<g>
			<path fill="#2F3491" d="M473.524,421.014h-7.516V150.976c0-16.57-13.441-29.974-30.012-29.974h-44.995V60.974
				c0-16.566-13.408-29.974-29.975-29.974H151.011c-16.566,0-30.012,13.407-30.012,29.974v60.029h-45
				c-16.566,0-30.012,13.403-30.012,29.974v270.038h-7.472c-4.155,0-7.515,3.359-7.515,7.473v22.497
				C31,467.558,44.446,481,61.012,481h390.014C467.593,481,481,467.558,481,450.983v-22.497
				C481,424.373,477.637,421.014,473.524,421.014z M135.985,60.974c0-8.264,6.723-14.987,15.025-14.987h210.017
				c8.265,0,14.983,6.723,14.983,14.987V90.99H135.985V60.974z M135.985,105.973h240.025v217.528
				c0,8.264-6.719,14.986-14.983,14.986H151.011c-8.302,0-15.025-6.723-15.025-14.986V105.973z M151.011,353.513h210.017
				c16.566,0,29.975-13.445,29.975-30.012v-157.5h30.012v210.009H90.986V166.001h30.012v157.5
				C120.999,340.067,134.444,353.513,151.011,353.513z M61.012,150.976c0-8.268,6.685-14.987,14.987-14.987h45v14.987H83.514
				c-4.151,0-7.515,3.359-7.515,7.511v225c0,4.15,3.364,7.511,7.515,7.511h345.011c4.113,0,7.473-3.36,7.473-7.511v-225
				c0-4.151-3.359-7.511-7.473-7.511h-37.522v-14.987h44.995c8.306,0,15.029,6.719,15.029,14.987v270.038H323.501
				c-1.981,0-3.877,0.792-5.302,2.174l-12.813,12.813H206.61l-12.813-12.813c-1.382-1.382-3.321-2.174-5.298-2.174H61.012V150.976z
				 M466.009,450.983c0,8.307-6.719,15.029-14.982,15.029H61.012c-8.302,0-15.025-6.723-15.025-15.029v-14.982h139.427
				l12.774,12.813c1.421,1.383,3.321,2.17,5.298,2.17H308.51c1.978,0,3.877-0.787,5.303-2.17l12.809-12.813h139.388V450.983z"/>
			<path fill="#28ABE3" d="M361.027,45.987H151.011c-8.302,0-15.025,6.723-15.025,14.987V90.99h240.025V60.974
				C376.011,52.71,369.292,45.987,361.027,45.987z M165.998,76.003h-14.987V60.974h14.987V76.003z M196.014,76.003h-15.029V60.974
				h15.029V76.003z M226.026,76.003h-15.025V60.974h15.025V76.003z"/>
			<path fill="#FF580F" d="M466.009,436.001v14.982c0,8.307-6.719,15.029-14.982,15.029H61.012c-8.302,0-15.025-6.723-15.025-15.029
				v-14.982h139.427l12.774,12.813c1.421,1.383,3.321,2.17,5.298,2.17H308.51c1.978,0,3.877-0.787,5.303-2.17l12.809-12.813H466.009
				z"/>
		</g>
	</g>
	<g>
		<g>
			<rect x="158.502" y="230.127" fill="#28ABE3" width="195.006" height="14.999"/>
		</g>
	</g>
	<g>
		<g>
			<rect x="158.502" y="268.036" fill="#28ABE3" width="180.008" height="15.003"/>
		</g>
	</g>
	<g>
		<g>
			<rect x="203.505" y="193.095" fill="#28ABE3" width="150.003" height="15.002"/>
		</g>
	</g>
	<g>
		<g>
			<rect x="151.011" y="60.974" fill="#2F3491" width="14.987" height="15.029"/>
		</g>
	</g>
	<g>
		<g>
			<rect x="180.984" y="60.974" fill="#2F3491" width="15.029" height="15.029"/>
		</g>
	</g>
	<g>
		<g>
			<rect x="211.001" y="60.974" fill="#2F3491" width="15.025" height="15.029"/>
		</g>
	</g>
	<g>
		<g>
			<rect x="173.505" y="193.095" fill="#28ABE3" width="14.998" height="15.002"/>
		</g>
	</g>
</g>
</svg>
