<?xml version="1.0" encoding="utf-8"?>
<!-- Generator: Adobe Illustrator 16.0.0, SVG Export Plug-In . SVG Version: 6.00 Build 0)  -->
<!DOCTYPE svg PUBLIC "-//W3C//DTD SVG 1.1//EN" "http://www.w3.org/Graphics/SVG/1.1/DTD/svg11.dtd">
<svg version="1.1" id="Layer_1" xmlns="http://www.w3.org/2000/svg" xmlns:xlink="http://www.w3.org/1999/xlink" x="0px" y="0px"
	 width="512px" height="512px" viewBox="0 0 512 512" enable-background="new 0 0 512 512" xml:space="preserve">
<g>
	<path fill="#FF580F" d="M234.551,165.025c4.582,4.539,6.804,6.563,12.082,6.563c5.278,0,7.52-1.985,12.082-6.563
		c2.473-2.594,5.193-4.934,8.127-6.982l-11.958-23.916h-16.502l-11.999,23.903v0.004h0.04
		C229.359,160.091,232.08,162.432,234.551,165.025z"/>
	<path fill="#28ABE3" d="M284.135,314.914c-5.954-5.191-9.623-12.904-9.37-21.417V175.613c-0.949,0.794-1.787,1.637-2.815,2.668
		c-4.309,4.891-9.797,8.587-15.946,10.734v160.726h9.384h18.748V314.914z"/>
	<path fill="#28ABE3" d="M221.318,178.282c-1.071-1.032-1.969-1.902-2.811-2.668v117.884c0.016,0.534,0.016,1.071,0,1.602
		c-0.229,7.927-3.831,14.944-9.374,19.775v34.867h28.122V189.016C231.107,186.869,225.619,183.172,221.318,178.282z"/>
	<path fill="#2F3491" d="M462.252,209.124h-34.507c-3.954-14.466-9.727-28.375-17.167-41.398l24.275-24.374
		c7.354-7.093,7.575-18.807,0.482-26.168c-0.135-0.131-0.262-0.261-0.388-0.392l-39.67-39.655
		c-7.362-7.215-19.128-7.259-26.553-0.103l-24.449,24.374c-13.022-7.433-26.932-13.193-41.394-17.147V49.754
		c0-10.354-8.397-18.748-18.748-18.748h-18.748v9.37v9.378h18.748v41.809c0,4.373,3.021,8.168,7.282,9.145
		c17.475,3.993,34.151,10.912,49.333,20.452c3.692,2.317,8.492,1.779,11.592-1.301l29.604-29.541l39.733,39.71l-29.533,29.636
		c-3.076,3.092-3.621,7.896-1.297,11.596c9.536,15.178,16.455,31.854,20.448,49.329c0.98,4.266,4.769,7.287,9.148,7.287h41.806
		v56.248h-41.806c-4.38,0-8.168,3.021-9.148,7.287c-3.993,17.475-10.912,34.15-20.448,49.328c-2.324,3.697-1.779,8.505,1.297,11.597
		l29.541,29.597l-39.718,39.733l-29.628-29.525c-3.1-3.084-7.899-3.622-11.592-1.305c-15.182,9.544-31.858,16.463-49.333,20.456
		c-4.262,0.973-7.282,4.768-7.282,9.141v41.813h-18.748v9.37v9.378h18.748c10.351,0,18.748-8.397,18.748-18.748v-34.507
		c14.462-3.961,28.371-9.726,41.394-17.166l24.386,24.267c7.361,7.228,19.136,7.268,26.545,0.096l39.662-39.663
		c7.354-7.093,7.575-18.803,0.482-26.165c-0.119-0.134-0.253-0.261-0.38-0.379l-24.37-24.453
		c7.434-13.023,13.189-26.932,17.144-41.398h34.507c10.358,0,18.748-8.397,18.748-18.752v-56.248
		C481,217.517,472.61,209.124,462.252,209.124z"/>
	<path fill="#2F3491" d="M271.949,178.282c1.028-1.032,1.866-1.874,2.815-2.668v117.884c-0.253,8.513,3.416,16.226,9.37,21.417
		c4.602,4.013,10.563,6.516,17.15,6.709c0.529,0.016,1.06,0.016,1.598,0h18.748c15.095,0.439,27.683-11.434,28.125-26.524
		c0.017-0.53,0.017-1.071,0-1.602v-65.622H331v65.622c0.467,4.717-2.98,8.911-7.693,9.378c-0.562,0.056-1.123,0.056-1.676,0h-18.748
		c-4.713,0.463-8.912-2.984-9.378-7.697c-0.048-0.562-0.048-1.123,0-1.681V171.624c0.008-1.463-0.341-2.914-1.005-4.227
		l-27.113-54.211l-10.388-20.737c-2.736-4.638-8.718-6.171-13.347-3.428c-1.412,0.834-2.594,2.012-3.428,3.428l-37.496,74.948
		c-0.652,1.316-0.98,2.764-0.969,4.227v121.763c0.51,4.725-2.91,8.967-7.642,9.477c-0.573,0.06-1.155,0.067-1.736,0.012h-18.637
		c-4.725,0.506-8.967-2.914-9.473-7.634c-0.067-0.581-0.067-1.163-0.012-1.744v-65.622h-18.752v65.622
		c-0.443,15.095,11.43,27.684,26.528,28.126c0.53,0.016,1.06,0.016,1.597,0h18.748c7.16,0.21,13.747-2.38,18.752-6.749
		c5.543-4.831,9.145-11.849,9.374-19.775c0.016-0.53,0.016-1.067,0-1.602V175.613c0.842,0.767,1.74,1.637,2.811,2.668
		c4.301,4.891,9.789,8.587,15.937,10.734v160.726v28.126h18.748v-28.126V189.016C262.152,186.869,267.641,183.172,271.949,178.282z
		 M226.382,158.031l11.999-23.903h16.502l11.958,23.916c-2.934,2.048-5.654,4.388-8.127,6.982
		c-4.563,4.578-6.804,6.563-12.082,6.563c-5.278,0-7.5-2.024-12.082-6.563c-2.471-2.594-5.191-4.934-8.129-6.99h-0.04V158.031z"/>
	<path fill="#2F3491" d="M199.759,462.244v-65.621l0,0c0-29.66-18.396-37.504-28.126-37.504h-56.244
		c-9.734,0.625-18.127-6.753-18.756-16.479c-0.043-0.755-0.043-1.511,0-2.27v-34.945c0-2.681-1.15-5.239-3.155-7.014
		c-9.402-8.671-21.567-13.735-34.341-14.285c-4.515,0.546-8.615-2.668-9.165-7.18c-0.008-0.043-0.012-0.083-0.016-0.126l45.518-82.5
		c0.759-1.388,1.158-2.941,1.158-4.527v-18.17c0.079-67.271,54.599-121.791,121.874-121.87h18.752v-9.378v-9.37h-18.752
		C140.882,31.089,77.977,93.999,77.89,171.624v15.763l-45.716,82.836c-0.763,1.384-1.162,2.945-1.162,4.526
		c-0.443,15.091,11.438,27.68,26.524,28.126c0.534,0.012,1.072,0.012,1.598,0c6.824,0.376,13.363,2.827,18.748,7.018v30.479
		c-0.581,20.124,15.249,36.911,35.373,37.496c0.711,0.023,1.419,0.023,2.127,0h55.991c1.605,0.11,9.631,1.502,9.631,18.756v74.991
		c0,5.188,4.203,9.378,9.378,9.378h46.878v-9.378v-9.37H199.759z"/>
	<rect x="237.259" y="396.623" fill="#FF580F" width="18.748" height="18.748"/>
	<rect x="143.511" y="190.376" fill="#FF580F" width="18.748" height="18.748"/>
	<rect x="331" y="190.376" fill="#FF580F" width="18.756" height="18.748"/>
</g>
</svg>
