<?xml version="1.0" encoding="utf-8"?>
<!-- Generator: Adobe Illustrator 16.0.0, SVG Export Plug-In . SVG Version: 6.00 Build 0)  -->
<!DOCTYPE svg PUBLIC "-//W3C//DTD SVG 1.1//EN" "http://www.w3.org/Graphics/SVG/1.1/DTD/svg11.dtd">
<svg version="1.1" id="Layer_1" xmlns="http://www.w3.org/2000/svg" xmlns:xlink="http://www.w3.org/1999/xlink" x="0px" y="0px"
	 width="512px" height="512px" viewBox="0 0 512 512" enable-background="new 0 0 512 512" xml:space="preserve">
<g>
	<path fill="#2F3491" d="M378.212,308.805l-35.475,87.636c-0.405,1.097-0.568,2.232-0.449,3.417c0,0.119-0.079,0.286-0.079,0.445
		v68.228H175.203v-68.308c0-0.163-0.083-0.286-0.083-0.449c0-0.162,0.043-0.321,0.043-0.488c-0.083-0.445-0.246-0.894-0.409-1.303
		c-0.08-0.326-0.163-0.648-0.286-0.934c-0.322-0.648-0.731-1.3-1.22-1.832c-0.079-0.119-0.119-0.286-0.242-0.365
		c-0.083-0.119-0.123-0.08-0.163-0.119c-1.589-1.59-3.826-2.4-6.063-2.201l-53.417-0.08c-11.8-2.972-19.202-14.644-16.841-26.563
		l5.248-71.402c0.282-4.148-2.849-7.811-7.04-8.097c-0.568,0-42.717,0-42.717,0l38.649-64.442c0.04-0.163,0.123-0.326,0.163-0.485
		c0.202-0.449,0.405-0.938,0.528-1.426s0.246-1.017,0.286-1.506c0-0.163,0.079-0.326,0.079-0.528v-30.31
		C91.516,133.18,122.275,83.22,171.051,58.77c18.351-9.317,38.486-14.525,59.034-15.256h6.019
		c20.099,0.568,39.589,4.351,57.896,10.941h35.919c-26.034-14.728-55.49-23.675-86.41-25.546l-7.406-0.652l-6.591,0.163
		c-22.741,0.814-44.994,6.591-65.295,16.881c-53.905,26.972-87.874,82.141-87.672,142.391v28.275l-44.469,74.084
		c-1.422,2.359-1.422,5.287-0.08,7.647c1.343,2.399,3.866,3.866,6.591,3.866h47.517l-4.597,62.57
		c-3.54,20.218,9.805,39.543,29.984,43.452c0.489,0.079,1.017,0.159,1.506,0.159c0.282,0,0.568-0.04,0.814-0.04l46.214,0.814v67.616
		c0,4.188,3.417,7.604,7.608,7.604h182.143c4.188,0,7.604-3.416,7.604-7.604v-75.432l37.188-91.902H378.212z"/>
	<path fill="#2F3491" d="M209.78,278.594l-36.619-36.586c-2.566-2.428-6.551-2.428-9.118,0l-36.623,36.586
		c-1.835,1.872-2.392,4.641-1.382,7.072c1.005,2.392,3.361,3.989,5.963,3.989H149.2v41.946c0,3.572,2.876,6.484,6.452,6.484h25.9
		c3.572,0,6.452-2.912,6.452-6.484v-41.946h17.199c2.599,0,4.958-1.598,5.963-3.989C212.171,283.234,211.619,280.466,209.78,278.594
		z M181.552,276.719c-3.572,0-6.484,2.877-6.484,6.452v41.946h-12.936v-41.946c0-3.575-2.908-6.452-6.48-6.452h-8.049l20.981-20.981
		l21.017,20.981H181.552z"/>
	<path fill="#7BD8E8" d="M168.584,252.861l-25.892,25.892h12.96c2.451,0,4.446,1.979,4.446,4.418v43.981h17.004v-43.981
		c0-2.439,1.994-4.418,4.45-4.418h12.968L168.584,252.861z"/>
	<path fill="#2F3491" d="M287.422,236.453l-36.621-36.587c-2.563-2.427-6.587-2.427-9.154,0l-36.583,36.587
		c-1.839,1.835-2.396,4.645-1.422,7.036c1.005,2.427,3.365,4.021,6.003,4.021h17.195v84.092c0,3.572,2.876,6.484,6.452,6.484h25.869
		c3.573,0,6.485-2.912,6.485-6.484V247.51h17.199c2.599,0,4.958-1.593,5.963-4.021C289.813,241.098,289.265,238.289,287.422,236.453
		z M259.16,234.542c-3.572,0-6.449,2.912-6.449,6.484v84.091h-12.94v-84.091c0-3.572-2.908-6.484-6.48-6.484h-8.045l20.981-20.945
		l20.979,20.945H259.16z"/>
	<path fill="#FF580F" d="M246.228,210.724l-25.9,25.852h12.964c2.452,0,4.446,1.999,4.446,4.45v86.126h17.008v-86.126
		c0-2.451,1.979-4.45,4.415-4.45h12.961L246.228,210.724z"/>
	<path fill="#7BD8E8" d="M470.345,86.263v27.318h-0.378H246.339V86.263c0-5.03,4.076-9.106,9.106-9.106h205.79
		C466.272,77.157,470.345,81.233,470.345,86.263z"/>
	<path fill="#FF580F" d="M385.661,99.922c2.511,0,4.553-2.038,4.553-4.553c0-2.515-2.042-4.553-4.553-4.553
		c-2.515,0-4.554,2.038-4.554,4.553C381.107,97.884,383.146,99.922,385.661,99.922z"/>
	<path fill="#FF580F" d="M312.813,99.922c2.515,0,4.553-2.038,4.553-4.553c0-2.515-2.038-4.553-4.553-4.553
		c-2.511,0-4.553,2.038-4.553,4.553C308.26,97.884,310.302,99.922,312.813,99.922z"/>
	<path fill="#FF580F" d="M294.601,99.922c2.515,0,4.553-2.038,4.553-4.553c0-2.515-2.038-4.553-4.553-4.553
		s-4.549,2.038-4.549,4.553C290.052,97.884,292.086,99.922,294.601,99.922z"/>
	<path fill="#FF580F" d="M276.389,99.922c2.515,0,4.557-2.038,4.557-4.553c0-2.515-2.042-4.553-4.557-4.553
		c-2.511,0-4.553,2.038-4.553,4.553C271.836,97.884,273.878,99.922,276.389,99.922z"/>
	<path fill="#2F3491" d="M465.303,71.193H259.514c-8.653,0-15.693,7.04-15.693,15.693v98.99l0.302,2.066l2.102-0.067
		c2.65,0,5.272,0.671,7.791,1.995l2.979,1.569v-70.647h210.832v157.317c0,1.387-1.133,2.52-2.523,2.52H275.816v13.174h189.486
		c8.657,0,15.697-7.04,15.697-15.693V86.887C481,78.233,473.96,71.193,465.303,71.193z M256.994,86.887
		c0-1.391,1.129-2.519,2.52-2.519h205.789c1.391,0,2.523,1.128,2.523,2.519v20.731H256.994V86.887z"/>
	<path fill="#FF580F" d="M403.873,99.922h39.153c2.515,0,4.554-2.038,4.554-4.553c0-2.515-2.039-4.553-4.554-4.553h-39.153
		c-2.515,0-4.557,2.038-4.557,4.553C399.316,97.884,401.358,99.922,403.873,99.922z"/>
	<path fill="#2F3491" d="M329.205,165.619c-1.771-1.776-4.66-1.776-6.437,0l-36.424,36.424c-1.776,1.776-1.776,4.661,0,6.44
		l36.424,36.424c1.776,1.776,4.661,1.776,6.437,0c1.78-1.78,1.78-4.664,0-6.44l-33.202-33.206l33.202-33.202
		C330.985,170.279,330.985,167.399,329.205,165.619z"/>
	<path fill="#2F3491" d="M402.054,165.619c-1.776-1.776-4.661-1.776-6.44,0c-1.78,1.78-1.78,4.66,0,6.44l33.206,33.202
		l-33.206,33.206c-1.78,1.776-1.78,4.66,0,6.44c1.779,1.776,4.664,1.776,6.44,0l36.424-36.424c1.776-1.78,1.776-4.665,0-6.44
		L402.054,165.619z"/>
	<path fill="#2F3491" d="M372.264,146.136c-2.479-0.414-4.822,1.263-5.236,3.742L348.815,259.15c-0.465,2.773,1.673,5.3,4.493,5.3
		c2.186,0,4.116-1.581,4.49-3.806l18.208-109.269C376.424,148.896,374.743,146.549,372.264,146.136z"/>
</g>
</svg>
