<?xml version="1.0" encoding="utf-8"?>
<!-- Generator: Adobe Illustrator 16.0.0, SVG Export Plug-In . SVG Version: 6.00 Build 0)  -->
<!DOCTYPE svg PUBLIC "-//W3C//DTD SVG 1.1//EN" "http://www.w3.org/Graphics/SVG/1.1/DTD/svg11.dtd">
<svg version="1.1" id="Layer_1" xmlns="http://www.w3.org/2000/svg" xmlns:xlink="http://www.w3.org/1999/xlink" x="0px" y="0px"
	 width="512px" height="512px" viewBox="0 0 512 512" enable-background="new 0 0 512 512" xml:space="preserve">
<g>
	<g>
		<path fill="#2F3491" d="M443.505,358.089c-1.342,5.636-10.402,38.536-37.504,38.536c-5.176,0-9.376,4.196-9.376,9.376v56.245
			H218.501v-65.621c0-29.658-18.392-37.508-28.126-37.508h-56.246c-9.73,0.634-18.124-6.737-18.75-16.457
			c-0.048-0.761-0.048-1.521,0-2.288v-34.95c-0.004-2.684-1.152-5.232-3.161-7.007c-9.399-8.669-21.567-13.729-34.343-14.289
			c-4.513,0.552-8.612-2.668-9.164-7.178c-0.007-0.044-0.007-0.082-0.019-0.134l45.508-82.497c0.768-1.387,1.174-2.944,1.178-4.524
			v-18.172c0.075-67.276,54.59-121.792,121.867-121.875h75.006V31h-75.006C159.624,31.082,96.711,93.991,96.626,171.621v15.765
			l-45.706,82.84c-0.764,1.379-1.167,2.937-1.167,4.524c-0.439,15.094,11.43,27.69,26.52,28.122c0.537,0.016,1.074,0.016,1.603,0
			c6.82,0.38,13.361,2.833,18.75,7.029v30.471c-0.589,20.124,15.247,36.91,35.371,37.499c0.708,0.022,1.424,0.022,2.132,0h55.974
			c1.613,0.111,9.648,1.506,9.648,18.754v74.998c0,5.173,4.2,9.377,9.377,9.377h196.877c5.177,0,9.373-4.204,9.373-9.377v-57.109
			c29.293-5.538,43.276-36.464,46.687-53.548c0.13-0.604,0.193-1.222,0.189-1.849v-18.745h-18.749V358.089L443.505,358.089z"/>
		<path fill="#28ABE3" d="M221.981,135.381V116.3c0.458-15.362-11.624-28.175-26.993-28.622c-0.541-0.015-1.081-0.015-1.625,0
			h-11.926c-1.1,0-2.188,0.187-3.224,0.559c-13.685,2.146-23.58,14.221-23.006,28.063v76.325
			c-0.458,15.362,11.635,28.175,26.986,28.622c0.541,0.015,1.088,0.015,1.632,0h11.926c1.1,0,2.191-0.193,3.224-0.566
			c13.685-2.146,23.587-14.214,23.005-28.056v-19.081h-19.074v19.081c0.477,4.8-3.034,9.071-7.837,9.541
			c-0.563,0.06-1.137,0.06-1.707,0h-9.537c-4.8,0.47-9.071-3.034-9.541-7.834c-0.056-0.566-0.056-1.14,0-1.707V116.3
			c-0.477-4.8,3.034-9.071,7.83-9.548c0.57-0.052,1.14-0.052,1.71,0h9.537c4.8-0.469,9.071,3.041,9.544,7.841
			c0.056,0.566,0.056,1.141,0,1.707v19.081H221.981z"/>
		<path fill="#28ABE3" d="M259.365,87.678c-15.369,0.015-27.824,12.462-27.832,27.832v77.906
			c0.008,15.369,12.463,27.817,27.832,27.832h20.662c15.365-0.015,27.816-12.462,27.828-27.832V115.51
			c-0.012-15.37-12.463-27.817-27.828-27.832H259.365z M288.771,115.51v77.906c-0.004,4.83-3.913,8.743-8.739,8.75h-20.666
			c-4.833-0.008-8.743-3.921-8.762-8.75V115.51c0.019-4.83,3.928-8.743,8.762-8.758h20.666
			C284.857,106.759,288.767,110.68,288.771,115.51z"/>
		<path fill="#28ABE3" d="M326.944,221.247h38.952c15.366-0.015,27.811-12.462,27.821-27.832V115.51
			c-0.011-15.37-12.455-27.817-27.821-27.832h-38.952c-5.273,0-9.552,4.271-9.552,9.541v114.488
			C317.393,216.977,321.671,221.247,326.944,221.247z M336.478,106.751h29.419c4.83,0.007,8.744,3.928,8.744,8.758v77.906
			c0,4.83-3.914,8.743-8.744,8.75h-29.419V106.751z"/>
		<path fill="#28ABE3" d="M460.51,106.751V87.678h-47.703c-5.266,0-9.541,4.271-9.541,9.541v114.488c0,5.27,4.275,9.541,9.541,9.541
			h47.703v-19.081h-38.162v-38.163h38.162v-19.081h-38.162v-38.17H460.51z"/>
		<path fill="#FF580F" d="M443.505,302.872h18.749v18.746h-18.749V302.872z"/>
		<path fill="#2F3491" d="M443.505,246.627H218.501v18.746h225.004v18.753h18.749v-18.753c0.213-10.137-7.837-18.537-17.979-18.746
			C444.022,246.62,443.758,246.62,443.505,246.627z"/>
		<path fill="#FF580F" d="M331.003,31h18.745v18.746h-18.745V31z"/>
		<path fill="#FF580F" d="M368.498,31h18.754v18.746h-18.754V31z"/>
		<path fill="#FF580F" d="M406.001,31h18.754v18.746h-18.754V31z"/>
		<path fill="#FF580F" d="M176.786,246.627h18.75v18.746h-18.75V246.627z"/>
	</g>
	<g>
		<g>
			<g>
				<path fill="#2F3491" d="M311.66,293.525c-27.437,0-49.724,22.249-49.724,49.724c0.228,17.94,8.967,34.689,23.506,45.184v35.912
					c0,0.425,0.078,0.843,0.23,1.223v0.269c0.075,0.156,0.153,0.305,0.228,0.417l12.403,18.47c0.648,0.999,1.755,1.565,2.94,1.565
					h20.531c1.144,0,2.251-0.566,2.899-1.565l12.402-18.47c0.116-0.112,0.153-0.261,0.231-0.417v-0.269
					c0.152-0.38,0.228-0.798,0.228-1.223v-35.912c14.579-10.494,23.277-27.243,23.546-45.184
					C361.045,315.924,338.985,293.719,311.66,293.525z M320.057,439.349h-16.793l-7.67-11.411h32.133L320.057,439.349z
					 M292.542,420.871v-9.347h38.278l0.037,9.347H292.542z M332.423,383.588v0.119c-0.991,0.648-1.565,1.752-1.565,2.975v17.896
					h-38.315V386.45c0-1.178-0.611-2.288-1.603-2.974c-13.51-9.004-21.717-24.083-21.943-40.303
					c0.686-23.583,20.341-42.165,43.924-41.479c22.633,0.648,40.798,18.851,41.446,41.479
					C354.176,359.431,345.97,374.547,332.423,383.588z"/>
				<polygon fill="#FF580F" points="330.857,420.871 292.542,420.871 292.542,411.524 330.82,411.524 				"/>
			</g>
		</g>
		<g>
			<g>
				<path fill="#2F3491" d="M313.084,309.483c-1.949,0-3.525,1.581-3.525,3.526s1.576,3.525,3.525,3.525
					c14.654,0.022,26.527,11.896,26.55,26.55c0,1.945,1.577,3.525,3.522,3.525c1.952,0,3.529-1.58,3.529-3.525
					C346.666,324.533,331.633,309.499,313.084,309.483z"/>
			</g>
		</g>
		<g>
			<g>
				<path fill="#28ABE3" d="M252.438,339.56H227.05c-1.946,0-3.526,1.58-3.526,3.525s1.58,3.525,3.526,3.525h25.387
					c1.945,0,3.525-1.58,3.525-3.525l0,0C255.963,341.14,254.383,339.56,252.438,339.56z"/>
			</g>
		</g>
		<g>
			<g>
				<path fill="#28ABE3" d="M396.293,339.56h-25.384c-1.948,0-3.525,1.58-3.525,3.525s1.577,3.525,3.525,3.525h25.384
					c1.945,0,3.525-1.58,3.525-3.525S398.238,339.56,396.293,339.56z"/>
			</g>
		</g>
		<g>
			<g>
				<path fill="#28ABE3" d="M272.637,382.545c-1.264-1.483-3.492-1.655-4.968-0.388c-0.142,0.119-0.269,0.246-0.388,0.388v-0.075
					l-18.016,18.091c-1.479,1.267-1.651,3.488-0.388,4.971c1.271,1.477,3.492,1.647,4.972,0.381
					c0.142-0.112,0.269-0.246,0.384-0.381l18.02-18.016C273.732,386.241,273.904,384.021,272.637,382.545z"/>
			</g>
		</g>
		<g>
			<g>
				<path fill="#28ABE3" d="M373.697,280.676c-1.319-1.126-3.269-1.126-4.588,0l-18.02,18.022c-1.383,1.364-1.39,3.601-0.019,4.986
					c0.667,0.671,1.577,1.044,2.523,1.044l-0.033-0.037c0.938,0,1.837-0.365,2.5-1.029l18.02-18.016
					C375.348,284.171,375.177,281.942,373.697,280.676z"/>
			</g>
		</g>
		<g>
			<g>
				<path fill="#28ABE3" d="M374.781,401.261c-0.201-0.269-0.436-0.499-0.7-0.7l-18.02-18.091c-1.263-1.476-3.491-1.647-4.972-0.388
					c-1.479,1.268-1.65,3.496-0.384,4.972c0.12,0.142,0.246,0.269,0.384,0.388l18.02,18.023c1.155,1.558,3.365,1.886,4.935,0.737
					C375.605,405.04,375.938,402.834,374.781,401.261z"/>
			</g>
		</g>
		<g>
			<g>
				<path fill="#28ABE3" d="M272.253,298.698l-18.02-18.022c-1.476-1.26-3.701-1.089-4.968,0.387c-1.129,1.319-1.129,3.266,0,4.584
					l18.016,18.016c1.479,1.268,3.708,1.096,4.972-0.38C273.386,301.963,273.386,300.018,272.253,298.698z"/>
			</g>
		</g>
	</g>
</g>
</svg>
