<?xml version="1.0" encoding="utf-8"?>
<!-- Generator: Adobe Illustrator 16.0.0, SVG Export Plug-In . SVG Version: 6.00 Build 0)  -->
<!DOCTYPE svg PUBLIC "-//W3C//DTD SVG 1.1//EN" "http://www.w3.org/Graphics/SVG/1.1/DTD/svg11.dtd">
<svg version="1.1" id="Layer_1" xmlns="http://www.w3.org/2000/svg" xmlns:xlink="http://www.w3.org/1999/xlink" x="0px" y="0px"
	 width="512px" height="512px" viewBox="0 0 512 512" enable-background="new 0 0 512 512" xml:space="preserve">
<g>
	<g>
		<path fill="#FF580F" d="M134.124,124.749h75.003v37.504h-75.003V124.749z"/>
	</g>
	<path fill="#28ABE3" d="M471.616,96.628v318.75c0,5.184-4.189,9.372-9.36,9.372H49.748c-5.179,0-9.373-4.188-9.373-9.372V96.628
		c0-5.175,4.193-9.379,9.373-9.379h37.503v262.503c0.031,10.338,8.405,18.713,18.748,18.755h131.251
		c10.335-0.042,18.713-8.417,18.751-18.755c0.027,10.338,8.408,18.713,18.743,18.755H406c10.343-0.042,18.714-8.417,18.744-18.755
		V87.249h37.496C467.427,87.249,471.616,91.453,471.616,96.628z"/>
	<path fill="#2F3491" d="M462.256,77.88h-28.128V49.749c0-5.175-4.197-9.376-9.376-9.376H274.745
		c-6.937,0.027-13.619,2.632-18.743,7.316c-5.125-4.684-11.808-7.289-18.751-7.316h-150c-5.179,0-9.376,4.201-9.376,9.376V77.88
		H49.748C39.39,77.88,31,86.271,31,96.628v356.25c0,10.354,8.39,18.748,18.748,18.748h412.508c10.35,0,18.744-8.394,18.744-18.748
		V96.628C481,86.271,472.605,77.88,462.256,77.88z M274.745,59.129h140.623v290.623c0,5.179-4.196,9.375-9.368,9.375H274.745
		c-5.172,0-9.376-4.196-9.376-9.375V68.497C265.377,63.326,269.573,59.129,274.745,59.129z M96.62,59.129h140.631
		c5.171,0,9.376,4.197,9.376,9.368v281.255c0,5.179-4.205,9.375-9.376,9.375H106c-5.175,0-9.38-4.196-9.38-9.375V59.129
		L96.62,59.129z M462.256,452.879H49.748v-18.752h412.508V452.879L462.256,452.879z M49.748,415.371V96.628h28.127v253.124
		c0,15.533,12.591,28.119,28.124,28.119h131.251c6.943-0.019,13.619-2.627,18.751-7.308c5.124,4.681,11.806,7.289,18.743,7.308H406
		c15.529,0,28.128-12.586,28.128-28.119V96.628h28.112v318.75H49.748V415.371z"/>
	<path fill="#2F3491" d="M143.499,134.128h56.252v28.116h18.748v-37.496c0-5.179-4.197-9.372-9.372-9.372h-75.003
		c-5.179,0-9.376,4.193-9.376,9.372v37.496h18.751V134.128z"/>
	<path fill="#2F3491" d="M124.748,190.376h56.255v18.748h-56.255V190.376z"/>
	<path fill="#2F3491" d="M124.748,237.248h93.755V256h-93.755V237.248z"/>
	<path fill="#2F3491" d="M289.684,195.467h93.759v13.657h-93.759V195.467z"/>
	<path fill="#2F3491" d="M308.443,223.591h74.999v13.657h-74.999V223.591z"/>
	<path fill="#2F3491" d="M124.748,284.128h93.755v18.748h-93.755V284.128z"/>
	<g>
		<path fill="#2F3491" d="M299.067,331.008h74.999c5.172,0,9.376-4.197,9.376-9.38v-37.5c0-5.175-4.204-9.372-9.376-9.372h-74.999
			c-5.187,0-9.384,4.197-9.384,9.372v37.5C289.691,326.811,293.881,331.008,299.067,331.008z"/>
		<rect x="308.443" y="293.504" fill="#FF580F" width="56.24" height="18.756"/>
	</g>
	<path fill="#28ABE3" d="M310.3,136.465c1.979,0,3.836,0.483,5.524,1.293l12.951-12.952c-0.806-1.684-1.289-3.544-1.289-5.524
		c0-7.108,5.785-12.894,12.897-12.894c7.098,0,12.883,5.785,12.883,12.894c0,1.98-0.483,3.84-1.289,5.521l12.951,12.956
		c1.688-0.81,3.545-1.293,5.524-1.293c7.104,0,12.89,5.785,12.89,12.89c0,7.105-5.785,12.89-12.89,12.89
		c-7.105,0-12.891-5.785-12.891-12.89c0-1.983,0.484-3.844,1.305-5.524l-12.959-12.959c-1.688,0.809-3.553,1.296-5.524,1.296
		c-1.987,0-3.852-0.479-5.532-1.296L321.9,143.831c0.806,1.688,1.289,3.544,1.289,5.524c0,7.109-5.785,12.89-12.89,12.89
		s-12.897-5.781-12.897-12.89C297.402,142.25,303.195,136.465,310.3,136.465z"/>
</g>
</svg>
