<?xml version="1.0" encoding="utf-8"?>
<!-- Generator: Adobe Illustrator 16.0.0, SVG Export Plug-In . SVG Version: 6.00 Build 0)  -->
<!DOCTYPE svg PUBLIC "-//W3C//DTD SVG 1.1//EN" "http://www.w3.org/Graphics/SVG/1.1/DTD/svg11.dtd">
<svg version="1.1" id="Layer_1" xmlns="http://www.w3.org/2000/svg" xmlns:xlink="http://www.w3.org/1999/xlink" x="0px" y="0px"
	 width="512px" height="512px" viewBox="0 0 512 512" enable-background="new 0 0 512 512" xml:space="preserve">
<g>
	<g>
		<g>
			<path fill="#2F3491" d="M253.032,98.617c0-9.851-8.018-17.869-17.831-17.869L48.832,80.904
				c-4.787,0.038-9.266,1.867-12.611,5.254C32.833,89.546,31,94.021,31,98.811l0.118,139.727c0,9.851,8.022,17.869,17.869,17.869
				l49.988-0.076v17.052c0,3.426,2.806,6.231,6.231,6.231c1.673,0,3.232-0.665,4.399-1.833l21.413-21.488l49.289-0.038h12.497
				l-0.038-12.421H180.27l-51.821,0.038c-1.635,0-3.232,0.662-4.399,1.829l-12.653,12.695v-8.292c0-3.429-2.802-6.231-6.228-6.231
				l-56.182,0.08c-2.996,0-5.448-2.415-5.448-5.414L43.421,98.773c0-3,2.414-5.414,5.41-5.414l186.331-0.194
				c2.996,0,5.452,2.452,5.452,5.452l0.038,32.001v12.535h12.417v-12.535L253.032,98.617z"/>
		</g>
		<path fill="#28ABE3" d="M410.815,185.869l-37.571,0.468c-6.904,0.064-12.569-5.459-12.676-12.364l-0.471-37.571L410.815,185.869z"
			/>
		<g>
			<path fill="#28ABE3" d="M437.894,348.347l0.312,25.043l-125.222,1.563l-18.941-12.284l18.622-12.755L437.894,348.347
				L437.894,348.347z"/>
			<path fill="#28ABE3" d="M229.787,231.968l137.748-1.726c3.452-0.042,6.296,2.726,6.334,6.186l0.472,37.568
				c0.045,3.456-2.723,6.296-6.183,6.338l-137.743,1.722c-3.46,0.042-6.296-2.726-6.342-6.182l-0.472-37.571
				C223.563,234.846,226.331,232.006,229.787,231.968z"/>
		</g>
		<path fill="#FF580F" d="M217.734,168.239l62.62-0.08l0.008,12.523l-62.613,0.08L217.734,168.239z"/>
		<path fill="#FF580F" d="M217.769,193.286l12.523-0.015l0.012,12.52l-12.52,0.019L217.769,193.286z"/>
		<path fill="#FF580F" d="M242.816,193.252l12.52-0.015l0.019,12.524l-12.528,0.015L242.816,193.252z"/>
		<path fill="#2F3491" d="M418.42,399.681v12.497c0.038,10.395-8.372,18.805-18.767,18.805l-200.347,0.27
			c-10.395,0-18.805-8.368-18.805-18.763l-0.194-156.234l-0.038-12.421l-0.118-94.334c-0.038-10.353,8.368-18.801,18.763-18.801
			l41.738-0.08h12.417l108.625-0.156c1.673,0,3.27,0.662,4.433,1.829l50.148,50.03c1.209,1.206,1.87,2.764,1.87,4.437l0.152,118.979
			h-12.531l-0.159-116.371l-37.609-37.529l0.038,22.462c0,3.467,2.806,6.27,6.273,6.27l12.493-0.038l0.038,12.535H374.31
			c-10.357,0.038-18.805-8.372-18.805-18.767l-0.038-31.302l-102.397,0.156h-12.417l-41.738,0.08c-3.463,0-6.266,2.802-6.266,6.266
			l0.118,94.334l0.038,12.421l0.194,156.234c0,3.464,2.802,6.228,6.27,6.228l200.385-0.231c3.46-0.042,6.266-2.844,6.266-6.27
			l-0.038-12.535H418.42z"/>
		<path fill="#2F3491" d="M474.696,343.229l-12.531,0.02l-0.015-12.524c0-3.456-2.807-6.258-6.266-6.254L387,324.564l0.023,12.521
			l62.618-0.084v6.262l-137.753,0.179c-1.232,0.004-2.449,0.377-3.476,1.061l-17.177,11.49l-10.639,0.015l0.016,12.524l10.646-0.016
			l17.223,11.448c1.026,0.68,2.229,1.045,3.46,1.053l162.801-0.217c3.452-0.004,6.25-2.813,6.258-6.266l-0.038-25.051
			C480.962,346.023,478.156,343.225,474.696,343.229z M304.398,362.238l9.391-6.272l117.086-0.152l0.016,12.52l-117.094,0.156
			L304.398,362.238z M468.469,368.284l-25.055,0.034l-0.016-12.521l25.048-0.038L468.469,368.284z"/>
		<path fill="#FF580F" d="M261.748,305.938l62.61-0.083l0.023,12.523l-62.619,0.084L261.748,305.938z"/>
		<path fill="#FF580F" d="M217.943,331.04l62.617-0.08l0.022,12.523l-62.621,0.084L217.943,331.04z"/>
		<path fill="#FF580F" d="M236.699,305.974l12.523-0.02l0.019,12.523l-12.523,0.016L236.699,305.974z"/>
		<path fill="#FF580F" d="M217.981,356.091l43.827-0.057l0.022,12.523l-43.834,0.057L217.981,356.091z"/>
		<path fill="#2F3491" d="M380.682,274.478l-0.054-37.571c-0.008-6.919-5.619-12.516-12.539-12.508l-137.759,0.183
			c-6.912,0.004-12.516,5.619-12.504,12.539l0.045,37.567c0.012,6.92,5.627,12.521,12.543,12.509l137.751-0.183
			C375.093,287.005,380.688,281.394,380.682,274.478z M230.349,237.101l137.755-0.179l0.046,37.571l-137.755,0.179L230.349,237.101z
			"/>
	</g>
	<path fill="#FF580F" d="M71.214,153.031l30.302-0.042l0.045,30.302l-30.302,0.038L71.214,153.031z"/>
	<path fill="#FF580F" d="M125.719,153.031l30.302-0.042l0.046,30.302l-30.302,0.038L125.719,153.031z"/>
</g>
</svg>
