<?xml version="1.0" encoding="utf-8"?>
<!-- Generator: Adobe Illustrator 16.0.0, SVG Export Plug-In . SVG Version: 6.00 Build 0)  -->
<!DOCTYPE svg PUBLIC "-//W3C//DTD SVG 1.1//EN" "http://www.w3.org/Graphics/SVG/1.1/DTD/svg11.dtd">
<svg version="1.1" id="Layer_1" xmlns="http://www.w3.org/2000/svg" xmlns:xlink="http://www.w3.org/1999/xlink" x="0px" y="0px"
	 width="512px" height="512px" viewBox="0 0 512 512" enable-background="new 0 0 512 512" xml:space="preserve">
<g>
	<path fill="#28ABE3" d="M268.025,156.642c19.248,0,34.854,15.606,34.854,34.854c0,19.255-15.606,34.857-34.854,34.857
		c-19.255,0-34.857-15.603-34.857-34.857C233.168,172.249,248.771,156.642,268.025,156.642z"/>
	<path fill="#2F3491" d="M125.112,200.229c-9.629,0-17.431-7.805-17.431-17.427H93.741c0,17.324,14.044,31.368,31.372,31.368
		c17.324,0,31.372-14.044,31.372-31.368h-13.945C142.539,192.424,134.734,200.229,125.112,200.229z"/>
	<path fill="#2F3491" d="M337.737,451.202H184.37v-62.743h34.854v-13.945h-97.601c-19.235-0.023-34.83-15.614-34.854-34.857v-55.771
		c0-3.852-3.122-6.973-6.973-6.973H47.623l45.586-137.67c18.807-47.018,64.163-78.008,114.798-78.441h39.105V46.857h-39.105
		c-56.449,0.468-106.997,35.068-127.854,87.527L31.354,281.696c-1.209,3.656,0.77,7.599,4.426,8.809
		c0.706,0.233,1.443,0.353,2.189,0.353h34.854v48.799c0.032,26.941,21.861,48.771,48.798,48.803h48.799v69.711
		c0,3.852,3.125,6.973,6.972,6.973H344.71c3.847,0,6.972-3.121,6.972-6.973v-27.885h-13.944V451.202z"/>
	<path fill="#FF580F" d="M226.196,191.496c0,23.106,18.728,41.83,41.83,41.83c23.103,0,41.826-18.724,41.826-41.83
		c0-23.099-18.724-41.826-41.826-41.826C244.936,149.693,226.219,168.405,226.196,191.496z M295.911,191.496
		c0,15.4-12.485,27.889-27.886,27.889c-15.4,0-27.885-12.489-27.885-27.889c0-15.396,12.485-27.882,27.885-27.882
		C283.426,163.614,295.911,176.1,295.911,191.496z"/>
	<path fill="#2F3491" d="M419.685,248.591c0.531-0.238,1.11-0.373,1.713-0.413V149.67c0-11.549-9.368-20.913-20.917-20.913h-6.973
		c-11.549,0-20.908,9.364-20.908,20.913v27.885c0,3.851-3.126,6.972-6.973,6.972c-3.855,0-6.973-3.121-6.973-6.972V93.899
		c-0.023-19.24-15.618-34.834-34.857-34.858h-27.886c-19.239,0.024-34.838,15.618-34.857,34.858v28.242
		c-38.309,3.847-66.246,38.027-62.395,76.335s38.027,66.242,76.335,62.394c38.313-3.851,66.245-38.026,62.395-76.339
		c-3.316-32.986-29.404-59.074-62.395-62.39V93.899c0-11.549,9.364-20.913,20.917-20.913h27.886
		c11.553,0,20.913,9.364,20.913,20.913v83.656c0,11.549,9.359,20.913,20.917,20.913c11.549,0,20.909-9.364,20.909-20.913V149.67
		c0-3.852,3.121-6.973,6.972-6.973h6.973c3.852,0,6.973,3.121,6.973,6.973v98.478c3.185-1.119,6.9-1.079,10.264-0.575
		C418.494,247.691,419.145,248.076,419.685,248.591z M323.797,191.496c0,30.804-24.975,55.774-55.771,55.774
		c-30.804,0-55.774-24.97-55.774-55.774c0-30.797,24.97-55.767,55.774-55.767C298.811,135.765,323.761,160.711,323.797,191.496z"/>
	<g>
		<g>
			<path fill="#28ABE3" d="M362.081,368.708c-9.122,0-16.515,7.393-16.515,16.515V266.312c0-9.126,7.393-16.519,16.515-16.519h3.308
				v118.915H362.081z"/>
			<path fill="#28ABE3" d="M385.211,296.033v13.215h72.667v-13.215H385.211z M457.878,286.13v-16.522h-72.667v16.522H457.878z
				 M477.692,249.793v118.915H365.389V249.793H477.692z"/>
			<g>
				<path fill="#2F3491" d="M477.692,246.489H362.081c-10.938,0.012-19.807,8.876-19.814,19.822v118.911
					c0.008,10.942,8.876,19.807,19.814,19.822h115.611c1.824,0,3.308-1.479,3.308-3.308V249.793
					C481,247.969,479.517,246.489,477.692,246.489z M474.393,365.404H368.688V253.093h105.704V365.404L474.393,365.404z
					 M362.081,253.093v112.312c-4.878,0.004-9.586,1.813-13.207,5.088V266.312C348.874,259.01,354.787,253.093,362.081,253.093z
					 M362.081,398.438c-7.294,0-13.207-5.918-13.207-13.215c0-7.298,5.913-13.215,13.207-13.215h112.312v9.911h-89.182v6.607h89.182
					v9.911H362.081L362.081,398.438z"/>
				<path fill="#2F3491" d="M388.511,272.915h66.06v13.215h6.611v-16.522c0-1.824-1.479-3.296-3.304-3.296h-72.667
					c-1.828,0-3.308,1.472-3.308,3.296v16.522h6.607V272.915z"/>
				<path fill="#2F3491" d="M385.211,312.553h72.667c1.824,0,3.304-1.479,3.304-3.305v-16.515h-79.278v16.515
					C381.903,311.073,383.383,312.553,385.211,312.553z M454.57,299.337v6.607h-66.06v-6.607H454.57z"/>
				<path fill="#FF580F" d="M381.903,322.459h6.607v6.607h-6.607V322.459z"/>
				<path fill="#FF580F" d="M395.114,322.459h6.607v6.607h-6.607V322.459z"/>
				<path fill="#FF580F" d="M421.54,322.459h39.642v6.607H421.54V322.459z"/>
				<path fill="#2F3491" d="M371.992,381.919h6.611v6.607h-6.611V381.919z"/>
			</g>
		</g>
	</g>
</g>
</svg>
