<?xml version="1.0" encoding="utf-8"?>
<!-- Generator: Adobe Illustrator 16.0.0, SVG Export Plug-In . SVG Version: 6.00 Build 0)  -->
<!DOCTYPE svg PUBLIC "-//W3C//DTD SVG 1.1//EN" "http://www.w3.org/Graphics/SVG/1.1/DTD/svg11.dtd">
<svg version="1.1" id="Layer_1" xmlns="http://www.w3.org/2000/svg" xmlns:xlink="http://www.w3.org/1999/xlink" x="0px" y="0px"
	 width="512px" height="512px" viewBox="0 0 512 512" enable-background="new 0 0 512 512" xml:space="preserve">
<g>
	<path fill="#28ABE3" d="M263.773,253.508c-48.567,0-87.935-39.372-87.935-87.944c0-48.563,39.367-87.935,87.935-87.935
		c48.568,0,87.939,39.371,87.939,87.935C351.713,214.137,312.342,253.508,263.773,253.508z"/>
	<g>
		<g>
			<g>
				<path fill="#2F3491" d="M351.675,150.179c-1.567-2.019-4.494-2.381-6.509-0.805c-2.02,1.58-2.377,4.49-0.805,6.517
					c1.546,1.981,1.546,4.758,0,6.743c-11.348,14.555-26.039,25.485-42.558,32.091c8.681-9.298,14.005-21.771,14.005-35.461
					c0-13.644-5.281-26.068-13.891-35.359c9.551,3.842,18.529,9.124,26.567,15.718c1.001,0.817,1.993,1.665,2.956,2.513
					c1.913,1.704,4.852,1.529,6.556-0.396c1.695-1.913,1.517-4.852-0.4-6.551c-1.052-0.929-2.143-1.853-3.233-2.743
					c-19.824-16.254-44.9-25.217-70.59-25.217c-34.575,0-66.615,15.654-87.905,42.95c-4.166,5.354-4.166,12.813,0,18.163
					c21.29,27.295,53.33,42.954,87.905,42.954c34.571,0,66.616-15.659,87.901-42.954
					C355.845,162.992,355.845,155.533,351.675,150.179z M183.183,162.634c-1.546-1.985-1.546-4.762,0-6.743
					c11.347-14.555,26.034-25.489,42.562-32.092c-8.681,9.294-14.001,21.767-14.001,35.465c0,13.69,5.32,26.163,14.001,35.461
					C209.217,188.115,194.53,177.185,183.183,162.634z M263.833,202.01c-0.025,0-0.042,0-0.06,0c-0.021,0-0.034,0-0.051,0
					c-23.556-0.03-42.711-19.198-42.711-42.745c0-23.56,19.155-42.724,42.711-42.753c0.017,0,0.029,0,0.051,0
					c0.013,0,0.034,0,0.047,0c23.547,0.025,42.711,19.189,42.711,42.753C306.531,182.812,287.376,201.98,263.833,202.01z"/>
			</g>
		</g>
		<g>
			<path fill="#FF580F" d="M263.773,139.573c-10.857,0-19.683,8.83-19.683,19.692c0,10.854,8.826,19.684,19.683,19.684
				c10.858,0,19.688-8.83,19.688-19.684C283.462,148.403,274.632,139.573,263.773,139.573z M263.773,169.671
				c-5.741,0-10.415-4.673-10.415-10.406c0-5.742,4.673-10.415,10.415-10.415c5.738,0,10.411,4.673,10.411,10.415
				C274.185,164.998,269.512,169.671,263.773,169.671z"/>
		</g>
	</g>
	<g>
		<path fill="#FF580F" d="M284.122,377.9v74.986c0,10.351-8.396,18.742-18.747,18.742c-10.351,0-18.746-8.392-18.746-18.742V377.9
			H284.122z"/>
	</g>
	<path fill="#FFFFFF" d="M284.122,359.15v18.75h-37.493v-18.75c0.03-10.334,8.404-18.713,18.746-18.742
		C275.696,340.484,284.045,348.834,284.122,359.15z"/>
	<path fill="#2F3491" d="M152.896,162.323c0-62.118,50.357-112.475,112.479-112.475c62.118,0,112.479,50.357,112.479,112.475h18.742
		C396.651,89.851,337.95,31.055,265.478,31c-68.916-0.055-126.126,53.207-131,121.948H96.662v18.747h46.864
		C148.705,171.694,152.896,167.499,152.896,162.323z"/>
	<path fill="#2F3491" d="M369.611,205.665c-23.414,57.564-89.072,85.248-146.64,61.832c-27.606-11.232-49.637-32.956-61.24-60.409
		l-17.26,7.31c19.177,45.488,62.292,76.336,111.533,79.791v38.57c-11.194,3.957-18.7,14.517-18.747,26.393v93.728
		c0,15.53,12.587,28.122,28.117,28.122c15.531,0,28.122-12.592,28.122-28.122V359.15c-0.042-11.876-7.548-22.448-18.751-26.41
		v-38.531c47.636-3.285,89.682-32.288,109.668-75.651h30.933v-18.742h-37.054C374.48,199.816,371.047,202.129,369.611,205.665z
		 M265.375,349.779c2.521,0,4.938,1.039,6.671,2.871c1.751,1.708,2.726,4.055,2.7,6.5v9.379h-18.742v-9.379
		C256.004,353.979,260.2,349.779,265.375,349.779z M265.375,462.258c-5.175,0-9.371-4.2-9.371-9.371v-65.615h18.742v65.615
		C274.746,458.058,270.555,462.258,265.375,462.258z"/>
	<path fill="#FF580F" d="M59.168,152.948h18.747v18.747H59.168V152.948z"/>
	<path fill="#FF580F" d="M434.089,199.816h18.742v18.742h-18.742V199.816z"/>
</g>
</svg>
