<?xml version="1.0" encoding="utf-8"?>
<!-- Generator: Adobe Illustrator 16.0.0, SVG Export Plug-In . SVG Version: 6.00 Build 0)  -->
<!DOCTYPE svg PUBLIC "-//W3C//DTD SVG 1.1//EN" "http://www.w3.org/Graphics/SVG/1.1/DTD/svg11.dtd">
<svg version="1.1" id="Layer_1" xmlns="http://www.w3.org/2000/svg" xmlns:xlink="http://www.w3.org/1999/xlink" x="0px" y="0px"
	 width="512px" height="512px" viewBox="0 0 512 512" enable-background="new 0 0 512 512" xml:space="preserve">
<g>
	<g>
		<path fill="#28ABE3" d="M405.418,255.506v32.879c13.54-4.768,23.254-17.671,23.254-32.879c0-19.274-15.613-34.882-34.888-34.882
			c-19.271,0-34.882,15.607-34.882,34.882c0,15.208,9.707,28.111,23.258,32.879v-32.879c0-6.423,5.198-11.634,11.624-11.634
			S405.418,249.083,405.418,255.506z"/>
		<rect x="353.087" y="378.079" fill="#28ABE3" width="127.913" height="25.351"/>
		<path fill="#2F3491" d="M481,365.926v-58.087c0-9.626-7.82-17.449-17.449-17.449c-2.263,0-4.428,0.438-6.423,1.228
			c-2.018-7.399-8.793-12.852-16.825-12.852c-4.464,0-8.542,1.678-11.631,4.453c-0.966-0.868-2.057-1.58-3.196-2.22
			c5.685-7.066,9.009-16,9.009-25.493c0-22.448-18.256-40.7-40.7-40.7c-22.438,0-40.697,18.252-40.697,40.7
			c0,15.814,9.201,30.084,23.261,36.738v10.795c-1.825-0.641-3.774-1.013-5.818-1.013c-9.619,0-17.442,7.817-17.442,17.437v46.463
			h11.63v-46.463c0-3.207,2.609-5.819,5.813-5.819c3.21,0,5.818,2.612,5.818,5.819v5.818v17.436h11.624v-17.436v-5.818v-22.87
			v-14.014v-27.073c0-3.207,2.609-5.815,5.813-5.815c3.209,0,5.818,2.609,5.818,5.815v27.073v7.811v5.818v0.385v28.688h11.631
			v-29.073c0-3.206,2.605-5.818,5.812-5.818c3.203,0,5.815,2.612,5.815,5.818v29.073h11.624v-29.073
			c0-3.206,2.608-5.818,5.818-5.818c3.206,0,5.813,2.612,5.813,5.818v5.818v5.813v17.442h11.624v-17.442
			c0-3.213,2.611-5.813,5.812-5.813c3.213,0,5.822,2.6,5.822,5.813v58.087H481z M411.233,278.766v-23.26
			c0-9.619-7.827-17.439-17.449-17.439c-9.616,0-17.437,7.82-17.437,17.439v23.26c-7.177-5.388-11.631-13.949-11.631-23.26
			c0-16.029,13.042-29.07,29.067-29.07c16.032,0,29.076,13.041,29.076,29.07C422.86,264.816,418.406,273.378,411.233,278.766z"/>
		<g>
			<rect x="318.042" y="245.23" fill="#FF580F" width="31.463" height="17.731"/>
			<polygon fill="#FF580F" points="368.756,216.477 356.222,229.012 335.181,203.978 347.726,191.446 			"/>
			<rect x="384.968" y="178.301" fill="#FF580F" width="17.73" height="31.466"/>
			<polygon fill="#FF580F" points="456.498,207.968 431.461,229.002 418.926,216.464 443.963,195.433 			"/>
			<rect x="438.157" y="245.23" fill="#FF580F" width="31.467" height="17.731"/>
		</g>
	</g>
	<g>
		<path fill="#2F3491" d="M362.478,75.2H61.159C44.542,75.2,31,88.708,31,105.324V316.27c0,16.619,13.542,30.124,30.159,30.124
			h101.244l-9.864,54.234h-23.673c-6.888,0-13.073,3.84-16.182,9.998c-2.81,5.649-2.507,12.199,0.802,17.587
			c3.311,5.381,9.061,8.587,15.38,8.587h165.905c6.289,0,12.039-3.206,15.347-8.587c3.344-5.388,3.647-11.938,0.803-17.587
			c-3.075-6.158-9.26-9.998-16.149-9.998h-23.673l-9.86-54.234h74.896v-12.035H61.159c-9.963,0-18.089-8.124-18.089-18.089v-18.09
			h312.489c-3.947-3.546-7.356-7.62-10.197-12.035H43.07v-180.82c0-9.962,8.125-18.089,18.089-18.089h301.319
			c9.965,0,18.089,8.127,18.089,18.089v58.11h12.035v-58.11C392.602,88.708,379.097,75.2,362.478,75.2z M174.638,346.394h74.327
			l9.864,54.234h-16.886c-3.309,0-6.018,2.704-6.018,6.015c0,3.344,2.708,6.054,6.018,6.054h52.827c2.276,0,4.35,1.273,5.385,3.311
			c1.371,2.743,0.268,5.016-0.269,5.884c-0.531,0.836-2.105,2.841-5.116,2.841H128.865c-3.043,0-4.613-2.005-5.115-2.873
			c-0.536-0.836-1.639-3.108-0.268-5.852c1.002-2.037,3.076-3.311,5.382-3.311h76.936c3.309,0,6.018-2.71,6.018-6.054
			c0-3.311-2.708-6.015-6.018-6.015h-40.993L174.638,346.394z"/>
		<path fill="#FF580F" d="M299.887,421.891c-0.531,0.836-2.105,2.841-5.116,2.841H128.865c-3.043,0-4.613-2.005-5.115-2.873
			c-0.536-0.836-1.639-3.108-0.268-5.852c1.002-2.037,3.076-3.311,5.382-3.311h76.936c3.309,0,6.018-2.71,6.018-6.054
			c0-3.311-2.708-6.015-6.018-6.015h-40.993l9.83-54.234h74.327l9.864,54.234h-16.886c-3.309,0-6.018,2.704-6.018,6.015
			c0,3.344,2.708,6.054,6.018,6.054h52.827c2.276,0,4.35,1.273,5.385,3.311C301.526,418.75,300.423,421.022,299.887,421.891z"/>
		<path fill="#28ABE3" d="M199.759,322.29h24.105c3.327,0,6.026-2.703,6.026-6.027c0-3.331-2.699-6.027-6.026-6.027h-24.105
			c-3.327,0-6.027,2.696-6.027,6.027C193.731,319.587,196.432,322.29,199.759,322.29z"/>
	</g>
</g>
</svg>
