<?xml version="1.0" encoding="utf-8"?>
<!-- Generator: Adobe Illustrator 16.0.0, SVG Export Plug-In . SVG Version: 6.00 Build 0)  -->
<!DOCTYPE svg PUBLIC "-//W3C//DTD SVG 1.1//EN" "http://www.w3.org/Graphics/SVG/1.1/DTD/svg11.dtd">
<svg version="1.1" id="Layer_1" xmlns="http://www.w3.org/2000/svg" xmlns:xlink="http://www.w3.org/1999/xlink" x="0px" y="0px"
	 width="512px" height="512px" viewBox="0 0 512 512" enable-background="new 0 0 512 512" xml:space="preserve">
<g>
	<path fill="#28ABE3" d="M458.468,91.062h-31.286l22.123-22.123l-21.217-21.208l-22.114,22.114V38.568h-29.99v31.298l-22.13-22.135
		l-21.209,21.217l22.114,22.114h-31.273v29.998h31.281l-22.122,22.123l21.209,21.208l22.13-22.13v31.293h29.99v-31.285
		l22.122,22.122l21.209-21.208l-22.123-22.123h31.286V91.062z M405.974,112.279l-8.781,8.781h-12.436l-8.773-8.772V99.843
		l8.781-8.781h12.415l8.794,8.789V112.279z"/>
	<path fill="#FF580F" d="M326.58,143.556c-0.125-0.308-0.216-0.623-0.341-0.931l18.995-18.99L313.413,91.81l-18.99,18.999
		c-0.308-0.125-0.623-0.224-0.935-0.349V83.561H248.5v26.899c-0.307,0.125-0.623,0.225-0.93,0.349L228.57,91.81l-31.817,31.826
		l18.991,18.99c-0.133,0.308-0.216,0.623-0.345,0.931h-26.895v44.993h26.899c0.128,0.307,0.22,0.623,0.349,0.93l-18.999,18.991
		l31.817,31.817l18.999-18.982c0.307,0.125,0.623,0.216,0.93,0.34v26.891h44.993v-26.899c0.308-0.125,0.623-0.216,0.931-0.341
		l18.99,18.991l31.821-31.817l-18.986-18.991c0.124-0.307,0.216-0.623,0.341-0.93h26.895v-44.993H326.58z M270.996,196.042
		c-16.565,0-29.998-13.425-29.998-29.99s13.433-29.998,29.998-29.998c16.564,0,29.989,13.433,29.989,29.998
		S287.561,196.042,270.996,196.042z"/>
	<path fill="#2F3491" d="M270.996,128.553c-20.71,0-37.496,16.789-37.496,37.499c0,20.71,16.785,37.491,37.496,37.491
		c20.706,0,37.49-16.781,37.49-37.491C308.462,145.351,291.689,128.586,270.996,128.553z M270.996,188.549
		c-12.424,0-22.497-10.077-22.497-22.497c0-12.428,10.073-22.496,22.497-22.496c12.419,0,22.492,10.068,22.492,22.496
		C293.488,178.472,283.415,188.549,270.996,188.549z"/>
	<path fill="#2F3491" d="M458.468,83.561H445.3l9.321-9.321c2.924-2.924,2.924-7.676,0-10.6l-21.226-21.226
		c-2.924-2.924-7.676-2.924-10.6,0l-9.321,9.321V38.568c0-4.137-3.355-7.493-7.501-7.493h-29.99c-4.145,0-7.501,3.356-7.501,7.493
		v13.167l-9.325-9.321c-2.928-2.924-7.672-2.924-10.604,0L336.619,54.36c-25.042-13.018-52.477-20.76-80.618-22.746L248.657,31
		l-6.504,0.166c-22.451,0.814-44.453,6.513-64.49,16.681c-53.267,26.625-86.837,81.146-86.637,140.702v27.913l-43.921,73.212
		c-2.135,3.547-0.989,8.158,2.559,10.284c1.171,0.698,2.504,1.072,3.863,1.072h46.953l-4.553,67.588
		c-3.48,20.004,9.695,39.103,29.632,42.957c0.49,0.092,0.989,0.142,1.496,0.142c0.27,0,0.54-0.017,0.81-0.05l45.645-4.942v66.782
		c0,4.137,3.356,7.493,7.501,7.493h179.97c4.146,0,7.502-3.356,7.502-7.493v-74.509l58.579-144.805
		c9.641-26.816,11.385-55.834,5.005-83.605c0.474-0.241,0.923-0.54,1.329-0.889l21.226-21.217c2.924-2.933,2.924-7.676,0-10.6
		l-9.321-9.329h13.168c4.137,0,7.501-3.356,7.501-7.494V91.062C465.969,86.925,462.604,83.561,458.468,83.561z M413.047,248.876
		l-59.02,145.885c-0.407,1.071-0.564,2.218-0.457,3.355c0,0.15-0.087,0.274-0.087,0.433v67.488H188.504v-67.521
		c0-0.158-0.079-0.291-0.087-0.448c-0.004-0.158,0.07-0.333,0.045-0.516c-0.096-0.448-0.232-0.889-0.416-1.32
		c-0.066-0.283-0.158-0.565-0.266-0.84c-0.32-0.723-0.756-1.379-1.288-1.96c-0.075-0.075-0.091-0.175-0.158-0.241
		s-0.083-0.05-0.125-0.092c-0.473-0.456-1.005-0.847-1.586-1.162l-0.141-0.075c-1.296-0.756-2.792-1.088-4.287-0.955l-52.769,5.715
		c-11.646-2.924-18.949-14.463-16.623-26.242l5.171-76.345c0.287-4.129-2.824-7.718-6.957-8c-0.623-0.059-42.227,0-42.227,0
		l38.181-63.634c0.066-0.158,0.125-0.324,0.166-0.482c0.22-0.448,0.391-0.922,0.507-1.404c0.149-0.49,0.25-0.989,0.299-1.495
		c0-0.174,0.095-0.324,0.095-0.507v-29.749c-0.183-53.989,30.235-103.418,78.517-127.576c18.16-9.221,38.105-14.38,58.458-15.12
		h5.948c26.899,1.039,53.283,7.718,77.437,19.614c-1.408,2.85-0.852,6.28,1.392,8.54l9.333,9.337h-13.641
		c-2.093,0.017-4.091,0.914-5.486,2.476c-2.937-2.384-7.194-2.177-9.886,0.482l-7.12,7.119V83.561c0-4.137-3.364-7.493-7.501-7.493
		H248.5c-4.146,0-7.501,3.356-7.501,7.493v10.077l-7.124-7.119c-2.928-2.924-7.672-2.924-10.604,0l-31.809,31.809
		c-2.924,2.933-2.924,7.676,0,10.6l7.119,7.128h-10.077c-4.137,0-7.493,3.356-7.493,7.501v44.993c0,4.137,3.356,7.493,7.493,7.493
		h10.077l-7.119,7.127c-2.924,2.924-2.924,7.676,0,10.608l31.809,31.809c2.933,2.924,7.676,2.924,10.604,0l7.124-7.12v10.077
		c0,4.137,3.356,7.493,7.501,7.493h44.993c4.137,0,7.501-3.356,7.501-7.493v-10.077l7.12,7.12c2.933,2.924,7.676,2.924,10.6,0
		l31.813-31.817c2.928-2.924,2.928-7.676,0-10.6l-7.115-7.127h10.072c4.142,0,7.497-3.356,7.497-7.493V167.88l7.502-7.501v13.175
		c0,4.137,3.356,7.493,7.501,7.493h29.99c4.146,0,7.501-3.356,7.501-7.493v-13.175C423.543,189.047,423.394,220.308,413.047,248.876
		z M319.356,145.625c0.038,0.108,0.229,0.648,0.278,0.748c1.143,2.833,3.896,4.694,6.945,4.694h19.406v29.989H326.58
		c-3.049,0-5.803,1.853-6.945,4.686l-0.307,0.831c-1.205,2.816-0.565,6.081,1.611,8.241l13.683,13.699l-21.209,21.208l-13.69-13.724
		c-2.268-2.01-5.458-2.617-8.299-1.587c-0.108,0-0.648,0.233-0.756,0.283c-2.829,1.146-4.686,3.896-4.686,6.945v19.406h-29.981
		v-19.406c0-3.049-1.861-5.799-4.693-6.945l-0.823-0.308c-2.82-1.205-6.085-0.565-8.249,1.612l-13.69,13.682l-21.208-21.208
		l13.682-13.69c2.019-2.268,2.625-5.458,1.586-8.299c0-0.108-0.232-0.648-0.278-0.756c-1.142-2.816-3.879-4.661-6.924-4.677h-19.398
		v-29.989h19.398c3.057,0,5.807-1.861,6.953-4.694l0.307-0.822c1.201-2.816,0.565-6.089-1.611-8.249l-13.682-13.69l21.2-21.209
		l13.694,13.682c2.268,2.019,5.454,2.625,8.303,1.587c0.108-0.033,0.64-0.232,0.748-0.282c2.824-1.138,4.668-3.88,4.685-6.92V91.062
		h29.989v19.397c0,3.057,1.857,5.807,4.686,6.954l0.831,0.307c2.816,1.196,6.081,0.565,8.24-1.612l13.699-13.682l21.209,21.209
		l-13.716,13.69C318.925,139.594,318.314,142.775,319.356,145.625z M450.966,113.558h-17.62c-3.032,0-5.757,1.819-6.928,4.619
		l-1.803,4.361c-1.155,2.808-0.516,6.023,1.624,8.166l12.474,12.478l-10.617,10.617l-12.47-12.494
		c-2.143-2.143-5.366-2.783-8.17-1.628l-4.357,1.811c-2.808,1.163-4.635,3.905-4.627,6.945v17.62h-14.994v-17.62
		c0-3.032-1.819-5.766-4.619-6.929l-4.361-1.802c-2.804-1.155-6.031-0.515-8.171,1.628l-5.346,5.342v-3.115
		c0-4.146-3.355-7.501-7.497-7.501h-10.072l7.115-7.128c2.928-2.924,2.928-7.667,0-10.6l-19.543-19.581
		c0-0.066,0.037-0.116,0.037-0.183h17.624c3.036,0,5.766-1.836,6.928-4.635l1.799-4.345c1.167-2.8,0.52-6.031-1.624-8.174
		l-12.511-12.47l0.092-0.091l10.5-10.492l12.503,12.461c2.143,2.144,5.366,2.792,8.17,1.62l4.341-1.794
		c2.816-1.163,4.644-3.913,4.636-6.953v-17.62h14.994v17.62c0.009,3.032,1.828,5.765,4.627,6.92l4.357,1.811
		c2.796,1.163,6.019,0.532,8.17-1.604l12.47-12.494l10.617,10.617l-12.494,12.47c-2.127,2.151-2.759,5.358-1.604,8.158l1.803,4.361
		c1.163,2.799,3.888,4.627,6.928,4.635h17.62V113.558z"/>
	<path fill="#2F3491" d="M390.979,76.067c-16.569,0-29.998,13.425-29.998,29.989c0,16.573,13.429,29.998,29.998,29.998
		c16.564,0,29.994-13.425,29.994-29.998C420.973,89.492,407.543,76.067,390.979,76.067z M390.979,121.06
		c-8.282,0-14.995-6.72-14.995-15.003c0-8.282,6.713-14.995,14.995-14.995s14.995,6.712,14.995,14.995
		C405.974,114.339,399.261,121.06,390.979,121.06z"/>
</g>
</svg>
