<?xml version="1.0" encoding="utf-8"?>
<!-- Generator: Adobe Illustrator 16.0.0, SVG Export Plug-In . SVG Version: 6.00 Build 0)  -->
<!DOCTYPE svg PUBLIC "-//W3C//DTD SVG 1.1//EN" "http://www.w3.org/Graphics/SVG/1.1/DTD/svg11.dtd">
<svg version="1.1" id="Layer_1" xmlns="http://www.w3.org/2000/svg" xmlns:xlink="http://www.w3.org/1999/xlink" x="0px" y="0px"
	 width="512px" height="512px" viewBox="0 0 512 512" enable-background="new 0 0 512 512" xml:space="preserve">
<g>
	<g>
		<path fill="#2F3491" d="M73.782,437.523H56.663v-51.328c0-0.951,0.366-23.391,31.518-33.776
			c12.557-4.164,24.883-8.977,36.929-14.428v-0.398c-20.884-9.902-34.199-30.94-34.222-54.064v-25.657
			c0.023-33.072,26.85-59.869,59.928-59.846c9.978,0.01,19.797,2.507,28.566,7.28l-8.274,14.975
			c-20.785-11.239-46.736-3.489-57.968,17.287c-3.367,6.242-5.139,13.222-5.139,20.305v25.657
			c0.017,18.11,11.437,34.237,28.5,40.282c3.426,1.199,5.722,4.434,5.722,8.054v11.556c0.01,3.258-1.822,6.248-4.737,7.701
			c-14.237,6.796-28.898,12.659-43.896,17.557c-18.96,6.289-19.813,17.287-19.813,17.749L73.782,437.523z"/>
		<path fill="#2F3491" d="M455.328,437.523h-17.106v-51.328c0-0.23-0.859-11.229-19.819-17.557
			c-14.991-4.889-29.653-10.738-43.89-17.518c-2.915-1.453-4.75-4.443-4.728-7.695v-11.552c0-3.63,2.29-6.864,5.706-8.063
			c17.065-6.045,28.486-22.172,28.51-40.282v-24.29c0.151-15.719-7.995-30.348-21.441-38.491c-3.505-2.158-7.352-3.696-11.367-4.589
			c-10.268-2.388-21.059-0.936-30.315,4.104l-8.241-14.988c12.912-6.987,27.923-9.062,42.246-5.82
			c5.813,1.278,11.384,3.515,16.463,6.611c18.604,11.239,29.916,31.441,29.765,53.172v24.29
			c-0.02,23.124-13.341,44.162-34.221,54.064v0.398c12.049,5.451,24.375,10.264,36.919,14.428
			c31.161,10.386,31.514,32.825,31.514,33.776L455.328,437.523z"/>
		<path fill="#28ABE3" d="M65.228,266.426H48.115v-25.667c0-2.27,0.899-4.443,2.507-6.041c10.188-8.732,15.66-21.764,14.75-35.137
			c-0.092-0.524-0.145-1.061-0.145-1.591v-25.661h-25.67c-4.724,0-8.548-3.828-8.558-8.555c0-1.63,0.468-3.221,1.344-4.598
			l59.882-94.104c2.866-3.992,8.423-4.898,12.418-2.016c0.781,0.56,1.459,1.232,2.026,2.016l59.882,94.104
			c2.533,3.989,1.36,9.269-2.629,11.815c-1.374,0.866-2.964,1.337-4.598,1.328h-25.661v17.112h-17.109v-25.667
			c0-4.72,3.831-8.548,8.555-8.548h18.644L99.443,85.604l-44.308,69.612h18.647c4.727,0,8.548,3.828,8.548,8.548v33.576
			c1.492,17.376-4.776,34.518-17.103,46.848V266.426L65.228,266.426z"/>
		<path fill="#28ABE3" d="M463.883,266.426h-17.106v-22.238c-12.339-12.33-18.601-29.481-17.108-46.86v-33.563
			c0-4.72,3.827-8.548,8.554-8.548h18.642l-44.305-69.612l-44.312,69.612h18.645c4.727,0,8.558,3.828,8.558,8.548v25.667h-17.112
			v-17.103h-25.664c-4.727,0-8.554-3.828-8.554-8.555c-0.007-1.63,0.461-3.221,1.334-4.592l59.885-94.103
			c2.869-3.989,8.426-4.898,12.419-2.023c0.771,0.56,1.459,1.239,2.022,2.023l59.878,94.103c2.54,3.982,1.367,9.263-2.618,11.809
			c-1.377,0.876-2.975,1.337-4.599,1.337h-25.664v25.661c0,0.576-0.053,1.153-0.171,1.706c-0.87,13.367,4.608,26.365,14.773,35.081
			c1.591,1.584,2.487,3.739,2.504,5.989V266.426z"/>
		<path fill="#FF580F" d="M446.776,317.76h17.106v17.112h-17.106V317.76z"/>
		<path fill="#FF580F" d="M446.776,283.528h17.106v17.118h-17.106V283.528z"/>
		<path fill="#FF580F" d="M48.109,317.76h17.112v17.112H48.109V317.76z"/>
		<path fill="#FF580F" d="M48.109,283.528h17.112v17.118H48.109V283.528z"/>
	</g>
	<g>
		<g>
			<path fill="#28ABE3" d="M364.555,366.072c-12.254-8.139-61.12-27.175-77.317-33.391l18.321,27.488h-23.595v64.892v23.602h53.093
				h47.197v-53.096C381.381,383.484,374.809,372.529,364.555,366.072z"/>
			<path fill="#28ABE3" d="M134.478,395.567v53.096h100.286v-23.602V360.17h-23.595l18.328-27.488
				c-16.2,6.216-65.063,25.252-77.317,33.391C141.922,372.529,135.348,383.484,134.478,395.567z"/>
			<path fill="#28ABE3" d="M317.358,259.877v-35.401c0-23.592-23.773-53.086-53.09-53.086h-11.799
				c-29.327,0-53.103,29.495-53.103,53.086v35.401c0,23.131,14.813,51.687,35.397,58.996v5.896l23.601-35.391l23.599,35.391v-5.896
				C302.555,311.563,317.358,283.008,317.358,259.877z"/>
			<path fill="#28ABE3" d="M281.964,330.675c0,0,1.97,0.745,5.273,2.007l-5.273-7.913V330.675z"/>
			<path fill="#28ABE3" d="M234.764,330.675v-5.906l-5.267,7.913C232.791,331.42,234.764,330.675,234.764,330.675z"/>
		</g>
		<g>
			<path fill="#FF580F" d="M263.277,286.104c-2.029-2.714-5.873-3.268-8.581-1.238c-0.468,0.355-0.886,0.771-1.235,1.238
				l-47.2,70.792c-1.805,2.711-1.074,6.37,1.637,8.179c0.962,0.652,2.108,0.998,3.274,0.998h17.699v58.989h11.792V360.17
				c0-3.262-2.638-5.896-5.899-5.896h-12.573l36.174-54.278l36.179,54.278h-12.58c-3.255,0-5.899,2.635-5.899,5.896v64.892h11.799
				v-58.989h17.695c3.258,0,5.9-2.645,5.9-5.902c0-1.163-0.347-2.306-0.992-3.274L263.277,286.104z"/>
			<path fill="#FF580F" d="M228.871,436.861h11.792v11.802h-11.792V436.861z"/>
			<path fill="#FF580F" d="M276.064,436.861h11.799v11.802h-11.799V436.861z"/>
			<g>
				<path fill="#2F3491" d="M187.465,340.916c-13.581,5.162-26.882,11.397-39.617,18.582c-12.398,7.853-20.34,21.292-21.24,36.069
					v55.063h15.735l-0.006-54.897c0.797-9.458,6.087-18.088,14.079-23.042c11.792-6.647,24.214-12.422,36.919-17.165l1.904-0.712
					l-5.982-14.576L187.465,340.916z"/>
				<path fill="#2F3491" d="M325.23,224.476c0-27.61-27.191-60.959-60.962-60.959h-11.799c-33.773,0-60.965,33.349-60.965,60.959
					v35.444c0.372,16.668,5.705,32.63,15.429,46.165l1.149,1.602l12.764-9.204l-1.14-1.594
					c-7.777-10.87-12.089-23.688-12.468-37.012v-35.401c0-20.354,20.868-45.22,45.23-45.22h11.799
					c24.355,0,45.224,24.867,45.224,45.22v35.341c-0.382,13.206-4.602,25.895-12.204,36.683l-1.127,1.604l12.823,9.121l1.137-1.61
					c9.507-13.437,14.728-29.237,15.109-45.737V224.476z"/>
				<path fill="#2F3491" d="M390.13,450.63l-0.007-55.182c-0.893-14.654-8.838-28.098-21.322-35.997
					c-12.283-6.973-25.166-13.037-38.303-18.027l-1.782-0.676l-6.038,14.537l1.907,0.715c12.251,4.604,24.264,10.218,35.642,16.647
					c8.061,4.997,13.36,13.627,14.161,22.92v55.063H390.13z"/>
				<rect x="173.809" y="393.601" fill="#2F3491" width="15.735" height="57.029"/>
				<rect x="327.19" y="393.601" fill="#2F3491" width="15.735" height="57.029"/>
				<rect x="250.5" y="423.096" fill="#2F3491" width="15.736" height="15.735"/>
				<rect x="250.5" y="352.304" fill="#2F3491" width="15.736" height="62.929"/>
			</g>
		</g>
	</g>
</g>
</svg>
